<?xml version="1.0" encoding="UTF-8" standalone="no"?>
<svg width="164px" height="32px" viewBox="0 0 164 32" version="1.1" xmlns="http://www.w3.org/2000/svg" xmlns:xlink="http://www.w3.org/1999/xlink">
    <!-- Generator: Sketch 45.1 (43504) - http://www.bohemiancoding.com/sketch -->
    <title>header_logo</title>
    <desc>Created with Sketch.</desc>
    <defs></defs>
    <g id="assets" stroke="none" stroke-width="1" fill="none" fill-rule="evenodd">
        <g id="header_logo">
            <g id="logo" transform="translate(2.000000, 2.000000)">
                <path d="M0,27.277075 L0.857777778,2.45945 L8.09244444,2.45945 C11.5982222,10.830575 12.7173333,13.62095 13.5004444,15.896825 C14.3582222,13.54745 15.44,10.867325 18.9457778,2.45945 L25.8817778,2.45945 L26.7031111,27.277075 L21.4444444,27.277075 C21.0337778,15.713075 20.9217778,12.6287 20.8844444,8.774325 C19.9146667,11.527075 18.9084444,14.2072 15.1786667,23.1287 L11.2995556,23.1287 C7.57066667,14.02345 6.75022222,12.078325 5.59377778,8.811075 C5.55644444,12.409075 5.44444444,15.970325 5.072,27.277075 L0,27.277075 Z" id="Fill-1" fill="#01519E"></path>
                <path d="M43.1763556,15.308825 C43.1763556,12.8492 41.9452444,11.894575 39.4839111,11.894575 C37.2101333,11.894575 35.4572444,13.32695 35.3443556,16.1532 L43.1399111,16.1532 C43.1763556,15.933575 43.1763556,15.639575 43.1763556,15.308825 M39.2234667,27.791575 C33.2936889,27.791575 30.2350222,24.009825 30.2350222,18.3932 C30.2350222,11.563825 34.5248,8.333325 39.6332444,8.333325 C46.6448,8.333325 47.8385778,12.7757 47.8385778,17.5847 C47.8385778,17.98895 47.8385778,18.943575 47.7256889,19.494825 L35.1950222,19.494825 C35.1950222,19.71445 35.2332444,20.117825 35.2696889,20.375075 C35.5683556,22.247575 36.8368,23.936325 40.0812444,23.936325 C42.3185778,23.936325 44.4821333,23.458575 46.3096889,22.541575 L47.6892444,25.5157 C44.8545778,27.130075 42.4296889,27.791575 39.2234667,27.791575" id="Fill-3" fill="#01519E"></path>
                <path d="M64.9735111,12.6286125 C64.1157333,12.3722375 62.8855111,12.2252375 61.9530667,12.2252375 C58.9690667,12.2252375 56.9175111,13.6943625 56.9175111,18.0623625 C56.9175111,22.6517375 59.2295111,23.6422375 61.0206222,23.6422375 C62.6232889,23.6422375 63.8170667,23.1286125 64.9735111,22.4312375 L64.9735111,12.6286125 Z M65.1228444,27.2769875 L65.0099556,25.5514875 C63.5930667,26.9462375 61.6544,27.6812375 59.2677333,27.6812375 C54.3450667,27.6812375 51.5841778,24.4498625 51.5841778,18.3563625 C51.5841778,11.3073625 55.6499556,8.4434875 61.2810667,8.4434875 C62.3992889,8.4434875 64.1157333,8.6272375 64.9735111,8.8844875 L64.9735111,0.6612375 L70.0819556,-0.0002625 L70.0819556,27.2769875 L65.1228444,27.2769875 Z" id="Fill-6" fill="#01519E"></path>
                <path d="M79.8856889,3.3408375 C79.8856889,4.8213375 78.6670222,6.0209625 77.1630222,6.0209625 C75.6590222,6.0209625 74.4403556,4.8213375 74.4403556,3.3408375 C74.4403556,1.8603375 75.6590222,0.6607125 77.1630222,0.6607125 C78.6670222,0.6607125 79.8856889,1.8603375 79.8856889,3.3408375 L79.8856889,3.3408375 Z M74.5888,27.2773375 L74.5888,9.1412125 L79.6608,8.4805875 L79.6608,27.2773375 L74.5888,27.2773375 Z" id="Fill-8" fill="#00B17B"></path>
                <path d="M91.3037333,22.7616375 C93.0184,22.7616375 94.8468444,22.6146375 96.1517333,22.1001375 C99.1721778,21.1096375 100.292178,18.5021375 100.292178,14.4281375 C100.292178,11.6010125 99.3961778,9.2148875 97.4939556,8.1132625 C96.1517333,7.2688875 93.9508444,7.0483875 91.6388444,7.0483875 L89.4397333,7.0483875 L89.4397333,22.7616375 L91.3037333,22.7616375 Z M84.1792889,2.4966375 L89.4397333,2.4966375 C92.5712889,2.4966375 95.7046222,2.7171375 97.4192889,3.1213875 C102.529511,4.1118875 105.735733,7.3423875 105.735733,14.0238875 C105.735733,20.0447625 103.984622,24.2666375 98.6886222,26.2126375 C95.9277333,27.2398875 92.2726222,27.2766375 88.5801778,27.2766375 L84.1792889,27.2766375 L84.1792889,2.4966375 Z" id="Fill-10" fill="#01519E"></path>
                <path d="M119.656711,19.3108125 C117.606933,19.3843125 116.226489,19.5313125 114.883378,19.8611875 C113.765156,20.1551875 113.167822,20.7431875 113.167822,21.8071875 C113.167822,23.0558125 113.989156,24.1933125 115.927822,24.1933125 C117.606933,24.1933125 118.687822,23.5326875 119.656711,22.6883125 L119.656711,19.3108125 Z M119.9936,27.2768125 L119.880711,25.3684375 C118.276267,27.1665625 116.375822,27.6810625 114.398933,27.6810625 C110.222044,27.6810625 108.245156,24.5966875 108.245156,21.8071875 C108.245156,19.1638125 109.511822,17.7690625 111.788267,17.1084375 C113.876267,16.5204375 116.598044,16.2999375 119.620267,16.1896875 L119.620267,15.2350625 C119.620267,14.3548125 119.470933,13.5839375 119.134044,13.1429375 C118.724267,12.5558125 117.942044,12.3353125 116.636267,12.3353125 C114.9216,12.3353125 112.758044,12.7019375 110.333156,13.4369375 L109.475378,9.9859375 C112.236267,8.9219375 115.554489,8.3339375 118.016711,8.3339375 C120.776711,8.3339375 123.014044,8.9219375 124.095822,11.1978125 C124.542933,12.1883125 124.692267,13.7676875 124.692267,15.7128125 L124.692267,27.2768125 L119.9936,27.2768125 Z" id="Fill-12" fill="#01519E"></path>
                <path d="M135.904444,27.5709875 C134.115111,27.5709875 132.585333,26.9094875 131.802222,25.9189875 C131.056444,24.8908625 130.683111,23.3849875 130.683111,20.7792375 L130.683111,12.7388625 L127.773778,12.7388625 L127.773778,9.2143625 L130.870667,8.8477375 L131.056444,4.2959875 L135.755111,3.7447375 L135.755111,8.8844875 L139.895556,8.8844875 L139.895556,12.7388625 L135.755111,12.7388625 L135.755111,19.8613625 C135.755111,21.4766125 135.904444,22.4312375 136.277778,22.9457375 C136.651111,23.3849875 137.210222,23.6054875 138.030667,23.6054875 C138.963111,23.6054875 139.633333,23.4952375 140.490222,23.3482375 L141.012889,26.9094875 C139.671556,27.3137375 138.291111,27.5709875 135.904444,27.5709875" id="Fill-14" fill="#01519E"></path>
                <path d="M154.964,19.3108125 C152.914222,19.3843125 151.533778,19.5313125 150.190667,19.8611875 C149.072444,20.1551875 148.475111,20.7431875 148.475111,21.8071875 C148.475111,23.0558125 149.296444,24.1933125 151.235111,24.1933125 C152.914222,24.1933125 153.995111,23.5326875 154.964,22.6883125 L154.964,19.3108125 Z M155.300889,27.2768125 L155.188,25.3684375 C153.583556,27.1665625 151.683111,27.6810625 149.706222,27.6810625 C145.529333,27.6810625 143.553333,24.5966875 143.553333,21.8071875 C143.553333,19.1638125 144.819111,17.7690625 147.095556,17.1084375 C149.183556,16.5204375 151.905333,16.2999375 154.927556,16.1896875 L154.927556,15.2350625 C154.927556,14.3548125 154.778222,13.5839375 154.441333,13.1429375 C154.031556,12.5558125 153.249333,12.3353125 151.943556,12.3353125 C150.228889,12.3353125 148.065333,12.7019375 145.640444,13.4369375 L144.782667,9.9859375 C147.542667,8.9219375 150.861778,8.3339375 153.324,8.3339375 C156.084,8.3339375 158.321333,8.9219375 159.403111,11.1978125 C159.850222,12.1883125 159.999556,13.7676875 159.999556,15.7128125 L159.999556,27.2768125 L155.300889,27.2768125 Z" id="Fill-16" fill="#01519E"></path>
            </g>
        </g>
    </g>
</svg>